# xmcd
#
# Track frame offsets:
#	150
#	15924
#	33136
#	51398
#	73180
#	91872
#	111771
#	129389
#	148913
#	170759
#	191937
#	211372
#	233977
#	251380
#	272897
#	292299
#	307426
#	324993
#	340485
#
# Disc length: 4779 seconds
#
# Revision: 1
# Processed by: cddbd v1.5.2PL0 Copyright (c) Steve Scherf et al.
# Submitted via: EasyCDDAExtractor 15.3.0.1
#
DISCID=3012a913
DTITLE=Mariah Carey - #1 To Infinity
DYEAR=2015
DGENRE=R&B/Pop
TTITLE0=Vision Of Love
TTITLE1=Love Takes Time
TTITLE2=Someday (MTV Unplugged)
TTITLE3=I Don't Wanna Cry
TTITLE4=Emotions
TTITLE5=I'll Be There (Featuring Trey Lorenz)
TTITLE6=Dreamlover
TTITLE7=Hero
TTITLE8=Fantasy (Bad Boy Fantasy Featuring O.D.B.)
TTITLE9=One Sweet Day (Mariah Carey and Boyz II Men)
TTITLE10=Always Be My Baby
TTITLE11=Honey
TTITLE12=My All
TTITLE13=Heartbreaker (Featuring Jay-Z)
TTITLE14=Thank God I Found You (Featuring Joe and 98 Degrees)
TTITLE15=We Belong Together
TTITLE16=Don't Forget About Us
TTITLE17=Touch My Body
TTITLE18=Infinity
EXTD=
EXTT0=
EXTT1=
EXTT2=
EXTT3=
EXTT4=
EXTT5=
EXTT6=
EXTT7=
EXTT8=
EXTT9=
EXTT10=
EXTT11=
EXTT12=
EXTT13=
EXTT14=
EXTT15=
EXTT16=
EXTT17=
EXTT18=
PLAYORDER=
